<?xml version="1.0" encoding="UTF-8"?>
<svg id="Layer_1" data-name="Layer 1" xmlns="http://www.w3.org/2000/svg" viewBox="0 0 299.01 281">
  <path d="M265.71,37.42c2.44,3,4.76,6.1,6.95,9.29-2.1-3.51-4.4-6.66-6.95-9.29h0Z"/>
  <g>
    <path d="M78.35,262.44c-33.55-18.26-59.36-49.49-70.89-85.79-4.62-14.54-6.97-29.74-6.97-45.15,0-13.67,1.85-27.22,5.51-40.27,4.84-17.33,12.73-33.48,23.45-48.03,2.71.44,5.15.98,7.47,1.65,10.63,3.06,19.81,9.84,28.08,20.71,7.74,10.18,11.99,22.66,13.39,39.28.86,10.24.55,20.8.25,31.02-.15,5.22-.3,10.15-.3,15.05v111.53Z"/>
    <path d="M29.69,43.74c2.57.42,4.9.94,7.11,1.59,10.52,3.03,19.62,9.75,27.82,20.53,7.68,10.1,11.9,22.5,13.29,39.02.86,10.21.55,20.76.25,30.96-.15,5.22-.3,10.16-.3,15.07v110.69c-16.24-8.96-30.52-20.74-42.45-35.04-12.39-14.86-21.63-31.7-27.46-50.06-4.61-14.5-6.94-29.64-6.94-45,0-13.63,1.85-27.13,5.49-40.13,4.8-17.17,12.6-33.19,23.19-47.62M29.24,42.66c-10.65,14.38-18.77,30.75-23.71,48.44-3.6,12.85-5.53,26.4-5.53,40.4,0,15.8,2.45,31.02,6.99,45.3,11.84,37.3,37.93,68.26,71.86,86.48v-112.37c0-14.73,1.33-30.74.04-46.11-1.2-14.23-4.66-27.91-13.49-39.54-7.38-9.7-16.46-17.46-28.33-20.89-2.57-.75-5.19-1.3-7.83-1.71h0Z"/>
  </g>
  <g>
    <path d="M149.51,280.5c-9.58,0-19.18-.92-28.54-2.73V106.85c0-3.76.07-7.63.13-11.38.28-16.28.57-33.12-4.22-48.57-4.95-15.94-14.34-29.92-26.45-39.36-1.5-1.16-3-2.23-4.46-3.19-1.57-1.02-3.17-1.98-4.79-2.85,5.44-.09,10.93-.27,16.25-.45,6.19-.2,12.59-.41,18.88-.49l1.46-.02c2.04-.02,4.09-.05,6.15-.05,8.62,0,17.79.4,26.48,3.34,10.63,3.61,19.81,11.56,28.07,24.3,7.75,11.97,12.01,26.63,13.41,46.15.86,12.03.55,24.43.25,36.42-.15,6.12-.3,11.91-.3,17.65v146.04c-13.66,4.05-27.9,6.1-42.33,6.1Z"/>
    <path d="M123.91,0v1c8.58,0,17.7.4,26.32,3.32,10.52,3.57,19.62,11.45,27.82,24.1,7.7,11.89,11.94,26.48,13.33,45.91.86,12,.55,24.39.25,36.38-.15,6.13-.3,11.91-.3,17.66v145.66c-13.51,3.96-27.58,5.97-41.83,5.97-9.41,0-18.84-.89-28.04-2.64V106.85c0-3.75.07-7.63.13-11.37.28-16.32.57-33.2-4.25-48.73-4.98-16.04-14.43-30.1-26.62-39.61-1.51-1.17-3.02-2.25-4.5-3.22-1.05-.69-2.12-1.34-3.2-1.97,4.83-.1,9.68-.26,14.41-.41,6.19-.2,12.58-.41,18.87-.49l1.46-.02c2.01-.02,4.08-.05,6.13-.05V0M123.91,0c-2.55,0-5.1.04-7.61.07-12.37.14-24.74.8-37.12.96,2.23,1.12,4.4,2.37,6.5,3.74,1.51.99,2.99,2.05,4.43,3.17,12.01,9.37,21.35,23.21,26.28,39.11,5.89,18.98,4.07,40,4.07,59.8v171.33c9.39,1.85,19.1,2.82,29.04,2.82,14.89,0,29.26-2.17,42.83-6.22v-146.41c0-17.27,1.33-36.06.04-54.11-1.2-16.68-4.66-32.74-13.49-46.38-7.38-11.38-16.46-20.48-28.33-24.51C141.94.46,132.84,0,123.91,0h0Z"/>
  </g>
  <g>
    <path d="M236.98,119.06c0-3.19.04-6.43.09-9.67.19-13.88.38-28.24-2.82-41.42-3.3-13.59-9.57-25.51-17.66-33.57-.98-.98-1.99-1.9-2.99-2.73-.98-.82-2-1.61-3.05-2.34,3.48-.08,6.99-.23,10.4-.37,4.18-.17,8.5-.35,12.75-.42l1.03-.02c1.36-.02,2.72-.04,4.09-.04,5.7,0,11.77.34,17.51,2.83,3.16,1.36,6.18,3.52,8.97,6.42,2.45,3.01,4.78,6.12,6.94,9.26l.03.04.04.04c17.15,24.94,26.2,54.11,26.2,84.43,0,22.52-4.9,44.16-14.57,64.33-10.69,22.3-26.91,41.74-46.96,56.3V119.06Z"/>
    <path d="M238.83,28.98h0c5.65,0,11.66.34,17.31,2.79,3.1,1.34,6.06,3.46,8.81,6.31h.01c2.43,2.99,4.74,6.08,6.87,9.19l.06.08h.01c17.08,24.81,26.11,53.9,26.11,84.14,0,22.44-4.89,44.01-14.52,64.12-10.51,21.93-26.39,41.09-46.01,55.53V119.06c0-3.19.04-6.48.09-9.67.19-13.91.38-28.3-2.83-41.55-3.32-13.68-9.64-25.69-17.79-33.8-1-.99-2.01-1.92-3.02-2.76-.61-.52-1.24-1.02-1.88-1.5,3-.08,6-.21,8.93-.33,4.18-.17,8.5-.35,12.74-.42l1.03-.02c1.35-.02,2.72-.04,4.09-.04M238.83,27.98c-1.72,0-3.44.03-5.13.06-8.25.12-16.5.68-24.75.82,1.49.95,2.94,2.01,4.33,3.19,1.01.84,1.99,1.74,2.95,2.7,8.02,7.98,14.24,19.78,17.53,33.33,3.93,16.18,2.72,34.09,2.72,50.98v134.05c20.4-14.61,36.97-34.23,47.91-57.06,9.37-19.54,14.62-41.43,14.62-64.55,0-31.47-9.72-60.66-26.32-84.74,0-.02-.02-.03-.04-.04-2.19-3.19-4.51-6.29-6.95-9.29t-.02-.02s0,0-.02-.02c-2.75-2.85-5.77-5.08-9.13-6.53-5.72-2.48-11.77-2.88-17.71-2.88h0Z"/>
  </g>
</svg>